<svg width="60" height="60" viewBox="0 0 60 60" fill="none" xmlns="http://www.w3.org/2000/svg">
<path d="M30 5C16.225 5 5 16.225 5 30V42.5C5 43.875 6.125 45 7.5 45H15C16.375 45 17.5 43.875 17.5 42.5V30C17.5 28.625 16.375 27.5 15 27.5H10.175C11.4 17.65 19.825 10 30 10C40.175 10 48.6 17.65 49.825 27.5H45C43.625 27.5 42.5 28.625 42.5 30V42.5C42.5 43.875 43.625 45 45 45H50V47.5C50 48.875 48.875 50 47.5 50H37.5C37.5 48.625 36.375 47.5 35 47.5H25C23.625 47.5 22.5 48.625 22.5 50V52.5C22.5 53.875 23.625 55 25 55H47.5C51.625 55 55 51.625 55 47.5V30C55 16.225 43.775 5 30 5Z" fill="white"/>
</svg>
